<svg width="290" height="50" viewBox="0 0 290 50" fill="none" xmlns="http://www.w3.org/2000/svg">
<path d="M23.142 38H2.268V10.238H23.142C30.408 10.238 33.012 11.372 33.012 16.874V31.364C33.012 36.824 30.576 38 23.142 38ZM27.3 30.23V18.05C27.3 14.984 25.914 14.186 21.672 14.186H8.022V34.052H21.672C25.788 34.052 27.3 33.254 27.3 30.23ZM50.1034 34.052H60.2254C63.8374 34.052 65.0974 33.548 65.0974 30.776V24.644C65.0974 22.082 63.7114 21.326 60.2254 21.326H50.1034C46.5754 21.326 45.2314 22.082 45.2314 24.644V30.776C45.2314 33.548 46.4494 34.052 50.1034 34.052ZM60.9394 38H49.3894C42.1654 38 39.4774 36.992 39.4774 31.658V23.72C39.4774 18.512 42.1654 17.378 49.3894 17.378H60.9394C68.1634 17.378 70.8514 18.512 70.8514 23.72V31.658C70.8514 36.992 68.1634 38 60.9394 38ZM100.019 46.61H90.9471V42.662H98.0871C100.649 42.662 101.825 41.99 101.825 39.302V37.454H87.0831C79.6911 37.454 77.2971 36.362 77.2971 31.07V23.72C77.2971 18.512 79.7751 17.378 87.0831 17.378H107.537V40.184C107.537 45.602 105.143 46.61 100.019 46.61ZM101.825 33.674V21.326H87.7551C84.1011 21.326 83.0091 21.872 83.0091 24.644V30.356C83.0091 33.002 84.2271 33.674 87.7551 33.674H101.825ZM152.345 38H129.203V10.238H134.957V34.052H152.345V38ZM163.636 38H157.84V17.378H163.636V38ZM163.594 14.48H158.008V9.356H163.594V14.48ZM176.03 38H170.276V16.664C170.276 11.288 172.88 10.238 180.146 10.238H187.286V13.472H181.28C177.206 13.472 176.03 13.976 176.03 16.79V18.05H187.286V21.242H176.03V38ZM220.798 38H201.436C194.506 38 191.65 36.194 191.65 30.692V23.678C191.65 19.226 194.716 17.378 200.764 17.378H215.002C220.126 17.378 222.016 19.1 222.016 22.838V24.77C222.016 28.676 220.63 29.684 215.8 29.684H197.278V30.398C197.278 33.464 198.748 34.346 202.906 34.346H220.798V38ZM197.278 27.164H213.196C215.632 27.164 216.43 26.66 216.43 24.812V23.762C216.43 21.914 215.422 21.074 212.818 21.074H201.604C198.748 21.074 197.278 21.998 197.278 24.182V27.164ZM268.808 38L266.372 32.456H250.244L247.85 38H241.55L254.612 10.238H261.836L274.898 38H268.808ZM258.266 14.06L251.924 28.634H264.692L258.266 14.06ZM285.697 38H279.985V10.238H285.697V38Z" fill="#D1D1D1" fill-opacity="0.91"/>
</svg>
