<svg width="233" height="38" viewBox="0 0 233 38" fill="none" xmlns="http://www.w3.org/2000/svg">
<path d="M19.1164 29H3.21238V7.848H19.1164C24.6524 7.848 26.6364 8.712 26.6364 12.904V23.944C26.6364 28.104 24.7804 29 19.1164 29ZM22.2844 23.08V13.8C22.2844 11.464 21.2284 10.856 17.9964 10.856H7.59638V25.992H17.9964C21.1324 25.992 22.2844 25.384 22.2844 23.08ZM48.7784 29H38.8904C33.2904 29 31.4344 28.136 31.4344 23.944V12.904C31.4344 8.68 33.3544 7.848 38.8904 7.848H48.7784C54.3784 7.848 56.2984 8.68 56.2984 12.904V23.944C56.2984 28.168 54.3784 29 48.7784 29ZM51.9784 23.08V13.8C51.9784 11.4 50.9224 10.856 47.6584 10.856H40.0744C36.8744 10.856 35.7864 11.368 35.7864 13.8V23.08C35.7864 25.416 36.7464 25.992 40.0744 25.992H47.6584C50.9224 25.992 51.9784 25.448 51.9784 23.08ZM84.4896 29H68.5536C62.8576 29 61.0656 28.04 61.0656 23.944V12.904C61.0656 8.872 62.8256 7.848 68.5536 7.848H84.4896V10.856H69.7056C66.3136 10.856 65.3856 11.496 65.3856 13.8V23.08C65.3856 25.384 66.3776 25.992 69.7056 25.992H80.2976V19.848H70.7616V16.872H84.4896V29ZM118.557 29H100.925V7.848H105.309V25.992H118.557V29ZM127.096 29H122.744V7.848H127.096V29ZM148.187 19.848H136.571V29H132.187V7.848H154.555V10.856H136.571V16.904H148.187V19.848ZM181.318 29H158.694V7.848H181.318V10.856H163.078V16.968H174.182V19.816H163.078V25.992H181.318V29ZM216.884 29L215.028 24.776H202.74L200.916 29H196.116L206.068 7.848H211.572L221.524 29H216.884ZM208.852 10.76L204.02 21.864H213.748L208.852 10.76ZM229.752 29H225.4V7.848H229.752V29Z" fill="#d1d1d1" fill-opacity="0.91"/>
</svg>
