<svg width="2186" height="399" viewBox="0 0 2186 399" fill="none" xmlns="http://www.w3.org/2000/svg">
<path d="M184.8 96C203.6 96 220.2 98.1 234.6 102.3C249.2 106.3 261.7 111.9 272.1 119.1C282.5 126.3 291 134.7 297.6 144.3C304.2 153.7 309.1 163.8 312.3 174.6C315.5 185.4 317.1 196.4 317.1 207.6C317.1 221.8 314.5 235.7 309.3 249.3C304.3 262.7 296.4 274.8 285.6 285.6C275 296.4 261.3 305 244.5 311.4C227.9 317.8 208 321 184.8 321H6C6 308.2 6 295.5 6 282.9C6 270.1 6 257.4 6 244.8C6 232 6 219.3 6 206.7C6 193.9 6 181.1 6 168.3C6 156.3 6 144.3 6 132.3C6 120.1 6 108 6 96H184.8ZM160.8 182.4H125.1C125.1 182.4 125 182.4 124.8 182.4C124.8 182.4 124.8 182.5 124.8 182.7C124.8 182.7 124.8 182.8 124.8 183V234C124.8 234.2 124.8 234.4 124.8 234.6C125 234.6 125.1 234.6 125.1 234.6H161.4C165.8 234.6 169.7 233.9 173.1 232.5C176.7 231.1 179.7 229.2 182.1 226.8C184.5 224.4 186.3 221.6 187.5 218.4C188.9 215.2 189.6 211.9 189.6 208.5C189.6 203.7 188.4 199.3 186 195.3C183.8 191.3 180.6 188.2 176.4 186C172.2 183.6 167 182.4 160.8 182.4ZM458.215 330C445.815 330 433.815 329.1 422.215 327.3C410.615 325.5 399.815 322.8 389.815 319.2C379.815 315.4 370.715 310.7 362.515 305.1C354.315 299.5 347.315 293 341.515 285.6C335.715 278 331.215 269.5 328.015 260.1C324.815 250.5 323.215 239.9 323.215 228.3C323.215 214.7 325.415 202.5 329.815 191.7C334.415 180.7 340.815 171.1 349.015 162.9C357.415 154.7 367.215 147.9 378.415 142.5C389.615 136.9 401.915 132.8 415.315 130.2C428.915 127.4 443.215 126 458.215 126C477.015 126 494.515 128.2 510.715 132.6C527.115 136.8 541.415 143.2 553.615 151.8C566.015 160.2 575.715 170.8 582.715 183.6C589.715 196.4 593.215 211.3 593.215 228.3C593.215 245.3 589.715 260.2 582.715 273C575.715 285.6 566.015 296.2 553.615 304.8C541.415 313.2 527.115 319.5 510.715 323.7C494.515 327.9 477.015 330 458.215 330ZM458.515 250.5C470.915 250.5 479.715 248.1 484.915 243.3C490.115 238.5 492.715 233.3 492.715 227.7C492.715 225.1 492.115 222.5 490.915 219.9C489.715 217.3 487.815 214.9 485.215 212.7C482.615 210.5 479.115 208.8 474.715 207.6C470.315 206.2 464.915 205.5 458.515 205.5C452.115 205.5 446.615 206.2 442.015 207.6C437.615 208.8 434.015 210.5 431.215 212.7C428.615 214.9 426.715 217.3 425.515 219.9C424.315 222.5 423.715 225.2 423.715 228C423.715 230.8 424.315 233.6 425.515 236.4C426.715 239 428.715 241.4 431.515 243.6C434.315 245.6 437.915 247.3 442.315 248.7C446.715 249.9 452.115 250.5 458.515 250.5ZM864.091 135C864.091 159.2 864.091 183.5 864.091 207.9C864.091 232.3 864.091 256.7 864.091 281.1C864.091 291.9 861.591 301.7 856.591 310.5C851.591 319.1 844.691 326.7 835.891 333.3C827.091 340.1 816.891 345.7 805.291 350.1C793.691 354.5 781.191 357.8 767.791 360C754.391 362.4 740.791 363.6 726.991 363.6C709.391 363.6 691.991 361.7 674.791 357.9C657.591 354.1 642.191 348.4 628.591 340.8V293.1C634.391 296.9 641.391 300.4 649.591 303.6C657.991 306.6 666.891 309 676.291 310.8C685.691 312.6 694.991 313.5 704.191 313.5C711.791 313.5 718.891 312.8 725.491 311.4C732.291 309.8 738.291 307.4 743.491 304.2C748.691 301 752.791 296.8 755.791 291.6C758.791 286.4 760.291 280 760.291 272.4V216.9C760.291 213.3 759.591 210.2 758.191 207.6C756.791 205 754.691 202.9 751.891 201.3C749.291 199.5 746.191 198.2 742.591 197.4C738.991 196.4 734.991 195.9 730.591 195.9C724.591 195.9 719.191 196.7 714.391 198.3C709.791 199.7 706.191 201.9 703.591 204.9C700.991 207.9 699.691 211.6 699.691 216C699.691 220.6 700.991 224.5 703.591 227.7C706.391 230.9 710.091 233.4 714.691 235.2C719.291 236.8 724.591 237.6 730.591 237.6C746.591 237.6 756.491 231.8 760.291 220.2L742.291 290.7C733.891 295.7 725.591 298.7 717.391 299.7C709.191 300.7 700.891 301.2 692.491 301.2C680.291 301.2 668.591 299.3 657.391 295.5C646.191 291.5 636.191 285.9 627.391 278.7C618.791 271.3 611.891 262.4 606.691 252C601.691 241.4 599.191 229.4 599.191 216C599.191 207 600.391 198.7 602.791 191.1C605.191 183.5 608.591 176.5 612.991 170.1C617.391 163.7 622.591 158.1 628.591 153.3C634.791 148.3 641.491 144.1 648.691 140.7C656.091 137.3 663.891 134.8 672.091 133.2C680.491 131.4 688.991 130.5 697.591 130.5C701.591 130.5 705.891 130.8 710.491 131.4C715.091 131.8 719.691 132.6 724.291 133.8C729.091 134.8 733.691 136.3 738.091 138.3C742.491 140.1 746.491 142.4 750.091 145.2C753.891 147.8 757.091 151 759.691 154.8C759.891 155.2 759.991 155.4 759.991 155.4C760.191 155.4 760.291 155.3 760.291 155.1C760.291 154.9 760.291 154.7 760.291 154.5C760.291 152.3 760.291 149.1 760.291 144.9C760.291 140.5 760.291 137.2 760.291 135H864.091ZM1000.32 232.2C1000.32 232.4 1000.32 232.6 1000.32 232.8C1000.52 232.8 1000.72 232.8 1000.92 232.8H1117.92V321H875.824C875.824 308.6 875.824 296.2 875.824 283.8C875.824 271.4 875.824 259 875.824 246.6C875.824 234 875.824 221.5 875.824 209.1C875.824 196.7 875.824 184.3 875.824 171.9C875.824 159.3 875.824 146.7 875.824 134.1C875.824 121.3 875.824 108.6 875.824 96H1000.32C1000.32 107.4 1000.32 118.8 1000.32 130.2C1000.32 141.4 1000.32 152.7 1000.32 164.1C1000.32 175.5 1000.32 186.9 1000.32 198.3C1000.32 209.5 1000.32 220.8 1000.32 232.2ZM1127.78 321C1127.78 311.8 1127.78 302.7 1127.78 293.7C1127.78 284.5 1127.78 275.4 1127.78 266.4C1127.78 257.2 1127.78 248.1 1127.78 239.1C1127.78 235.3 1127.78 231.5 1127.78 227.7C1127.78 223.9 1127.78 220.1 1127.78 216.3C1139.38 216.3 1150.88 216.3 1162.28 216.3C1173.88 216.3 1185.48 216.3 1197.08 216.3C1208.68 216.3 1220.18 216.3 1231.58 216.3C1231.58 227.9 1231.58 239.5 1231.58 251.1C1231.58 262.7 1231.58 274.4 1231.58 286.2C1231.58 297.8 1231.58 309.4 1231.58 321H1127.78ZM1127.78 216.3C1127.78 202.7 1127.78 189.1 1127.78 175.5C1127.78 161.9 1127.78 148.4 1127.78 135H1231.58C1231.58 141.6 1231.58 148.2 1231.58 154.8C1231.58 161.4 1231.58 168 1231.58 174.6C1231.58 181.2 1231.58 187.8 1231.58 194.4C1231.58 194.4 1231.48 194.5 1231.28 194.7C1214.08 198.3 1196.78 201.9 1179.38 205.5C1162.18 209.1 1144.98 212.7 1127.78 216.3ZM1374.6 87C1383.4 87 1392.4 87.8 1401.6 89.4C1411 90.8 1419.7 92.7 1427.7 95.1C1435.7 97.5 1442 100.1 1446.6 102.9L1419.6 189C1419.6 181.4 1416.6 175.8 1410.6 172.2C1404.6 168.4 1398.1 166.5 1391.1 166.5C1387.9 166.5 1384.9 166.8 1382.1 167.4C1379.3 168 1376.8 168.9 1374.6 170.1C1372.4 171.1 1370.5 172.5 1368.9 174.3C1367.5 176.1 1366.4 178.2 1365.6 180.6C1364.8 183 1364.4 185.7 1364.4 188.7C1364.4 188.7 1364.4 188.8 1364.4 189C1364.6 189 1364.7 189 1364.7 189H1419.6L1398 258.6H1364.7C1364.5 258.6 1364.4 258.6 1364.4 258.6C1364.4 258.6 1364.4 258.7 1364.4 258.9C1364.4 266.9 1364.4 274.1 1364.4 280.5C1364.4 286.7 1364.4 293 1364.4 299.4C1364.4 305.8 1364.4 313 1364.4 321H1259.7C1259.7 313 1259.7 305.8 1259.7 299.4C1259.7 293 1259.7 286.7 1259.7 280.5C1259.7 274.1 1259.7 266.9 1259.7 258.9C1259.7 258.7 1259.7 258.6 1259.7 258.6C1259.7 258.6 1259.6 258.6 1259.4 258.6H1236.6C1239.2 250.8 1241.8 243.1 1244.4 235.5C1247 227.7 1249.5 219.9 1251.9 212.1C1254.5 204.3 1257.1 196.6 1259.7 189V186C1259.7 166.2 1264.4 148.9 1273.8 134.1C1283.2 119.1 1296.5 107.5 1313.7 99.3C1330.9 91.1 1351.2 87 1374.6 87ZM1560.67 253.2C1571.27 253.2 1579.47 251.3 1585.27 247.5C1591.07 243.7 1594.07 238.5 1594.27 231.9L1686.97 262.2C1683.37 274.8 1675.67 286.3 1663.87 296.7C1652.27 306.9 1637.57 315 1619.77 321C1601.97 327 1582.07 330 1560.07 330C1541.27 330 1523.67 327.9 1507.27 323.7C1491.07 319.5 1476.77 313.2 1464.37 304.8C1452.17 296.2 1442.57 285.5 1435.57 272.7C1428.57 259.9 1425.07 245 1425.07 228C1425.07 211 1428.57 196.1 1435.57 183.3C1442.57 170.5 1452.17 159.9 1464.37 151.5C1476.77 142.9 1491.17 136.5 1507.57 132.3C1523.97 128.1 1541.47 126 1560.07 126C1579.07 126 1596.47 128.1 1612.27 132.3C1628.27 136.5 1641.97 143 1653.37 151.8C1664.97 160.4 1673.87 171.4 1680.07 184.8C1686.47 198 1689.67 213.7 1689.67 231.9H1526.17C1526.17 231.9 1526.07 231.9 1525.87 231.9C1525.87 231.9 1525.87 232 1525.87 232.2C1525.87 235.2 1526.67 238 1528.27 240.6C1529.87 243.2 1532.07 245.5 1534.87 247.5C1537.87 249.3 1541.47 250.7 1545.67 251.7C1550.07 252.7 1555.07 253.2 1560.67 253.2ZM1560.07 201.9C1550.27 201.9 1542.17 203.7 1535.77 207.3C1529.37 210.7 1526.17 215.6 1526.17 222C1526.17 222.2 1526.17 222.4 1526.17 222.6C1526.37 222.6 1526.47 222.6 1526.47 222.6H1593.37C1593.57 222.6 1593.67 222.6 1593.67 222.6C1593.67 222.4 1593.67 222.2 1593.67 222C1593.67 218.8 1592.77 216 1590.97 213.6C1589.37 211 1587.07 208.9 1584.07 207.3C1581.07 205.5 1577.47 204.2 1573.27 203.4C1569.27 202.4 1564.87 201.9 1560.07 201.9ZM1698.19 321V236.7H1807.69V321H1698.19ZM1834.47 145.8C1849.07 139.2 1864.87 134.3 1881.87 131.1C1899.07 127.7 1916.27 126 1933.47 126C1950.27 126 1966.47 127.6 1982.07 130.8C1997.67 134 2011.57 138.9 2023.77 145.5C2036.17 152.1 2045.97 160.3 2053.17 170.1C2060.37 179.9 2063.97 191.4 2063.97 204.6C2063.97 224 2063.97 243.4 2063.97 262.8C2063.97 282.2 2063.97 301.6 2063.97 321C2056.97 321 2049.97 321 2042.97 321C2035.97 321 2028.97 321 2021.97 321C2014.97 321 2007.97 321 2000.97 321C1993.97 321 1986.97 321 1979.97 321C1972.97 321 1965.97 321 1958.97 321C1958.97 310.4 1958.97 299.9 1958.97 289.5C1958.97 278.9 1958.97 268.4 1958.97 258C1958.97 254.4 1957.77 251.5 1955.37 249.3C1952.97 247.1 1950.07 245.6 1946.67 244.8C1943.27 243.8 1939.87 243.3 1936.47 243.3C1928.87 243.3 1923.07 244.8 1919.07 247.8C1915.27 250.8 1913.37 254.2 1913.37 258C1913.37 261.8 1915.37 265.3 1919.37 268.5C1923.37 271.5 1929.07 273 1936.47 273C1940.07 273 1944.17 272.3 1948.77 270.9C1953.37 269.5 1956.87 265.9 1959.27 260.1C1955.07 269.9 1950.77 279.7 1946.37 289.5C1942.17 299.3 1937.97 309.1 1933.77 318.9C1926.57 322.5 1918.97 325 1910.97 326.4C1903.17 328 1895.37 328.8 1887.57 328.8C1878.17 328.8 1869.07 327.5 1860.27 324.9C1851.67 322.5 1843.87 318.9 1836.87 314.1C1830.07 309.3 1824.67 303.3 1820.67 296.1C1816.67 288.9 1814.67 280.5 1814.67 270.9C1814.67 265.1 1815.67 259.4 1817.67 253.8C1819.67 248.2 1822.67 242.9 1826.67 237.9C1830.67 232.9 1835.67 228.5 1841.67 224.7C1847.87 220.9 1855.17 218 1863.57 216C1871.97 213.8 1881.57 212.7 1892.37 212.7C1899.37 212.7 1906.17 213.3 1912.77 214.5C1919.37 215.5 1925.57 217.1 1931.37 219.3C1937.37 221.5 1942.67 224.2 1947.27 227.4C1952.07 230.6 1955.97 234.2 1958.97 238.2C1958.97 237.8 1958.97 237.5 1958.97 237.3C1958.97 236.9 1958.97 236.6 1958.97 236.4C1958.97 236 1958.97 235.7 1958.97 235.5C1958.97 229.3 1957.37 224 1954.17 219.6C1951.17 215 1946.97 211.3 1941.57 208.5C1936.37 205.5 1930.27 203.3 1923.27 201.9C1916.47 200.5 1909.27 199.8 1901.67 199.8C1889.87 199.8 1877.97 201.3 1865.97 204.3C1853.97 207.3 1843.47 211.7 1834.47 217.5V145.8ZM2075.53 321C2075.53 311.8 2075.53 302.7 2075.53 293.7C2075.53 284.5 2075.53 275.4 2075.53 266.4C2075.53 257.2 2075.53 248.1 2075.53 239.1C2075.53 235.3 2075.53 231.5 2075.53 227.7C2075.53 223.9 2075.53 220.1 2075.53 216.3C2087.13 216.3 2098.63 216.3 2110.03 216.3C2121.63 216.3 2133.23 216.3 2144.83 216.3C2156.43 216.3 2167.93 216.3 2179.33 216.3C2179.33 227.9 2179.33 239.5 2179.33 251.1C2179.33 262.7 2179.33 274.4 2179.33 286.2C2179.33 297.8 2179.33 309.4 2179.33 321H2075.53ZM2075.53 216.3C2075.53 202.7 2075.53 189.1 2075.53 175.5C2075.53 161.9 2075.53 148.4 2075.53 135H2179.33C2179.33 141.6 2179.33 148.2 2179.33 154.8C2179.33 161.4 2179.33 168 2179.33 174.6C2179.33 181.2 2179.33 187.8 2179.33 194.4C2179.33 194.4 2179.23 194.5 2179.03 194.7C2161.83 198.3 2144.53 201.9 2127.13 205.5C2109.93 209.1 2092.73 212.7 2075.53 216.3Z" fill="#EAEAEA"/>
</svg>
