<svg width="1861" height="1861" viewBox="0 0 1861 1861" fill="none" xmlns="http://www.w3.org/2000/svg">
<g clip-path="url(#clip0_161_2)">
<path d="M0 0H895.982C772.015 10.0054 651.15 34.3184 538.289 88.0473C300.461 197.606 116.463 410.02 41.2222 660.855C18.5099 732.494 10.4056 805.633 0 879.673V0Z" fill="white"/>
<path d="M895.982 0H974.824L986.13 1.20065L993.934 2.30124C1115.6 14.2076 1233.36 42.723 1342.92 97.8526C1573.65 211.013 1751.44 422.727 1822.28 669.86C1843.59 739.097 1851.09 809.735 1861 881.174V975.024C1853.6 1031.45 1847.79 1088.99 1834.79 1143.71C1800.87 1287.79 1732.33 1423.57 1635.68 1535.73C1512.41 1679.8 1344.32 1784.36 1160.32 1830.68C1098.19 1847.09 1036.26 1852.9 972.623 1861H894.08C814.938 1852.8 737.096 1843.59 660.855 1819.68C492.565 1768.65 339.582 1669.8 225.521 1535.63C105.957 1397.45 28.9155 1222.36 8.60462 1040.76C5.60301 1015.55 2.40129 990.432 0 965.119V879.673C10.4056 805.633 18.5099 732.494 41.2222 660.855C116.463 410.02 300.461 197.606 538.289 88.0473C651.15 34.3184 772.015 10.0054 895.982 0Z" fill="#6CCAFE"/>
<path d="M974.824 0H1861V881.173C1851.09 809.735 1843.59 739.097 1822.28 669.86C1751.44 422.727 1573.65 211.013 1342.92 97.8526C1233.36 42.7229 1115.6 14.2076 993.934 2.30124L986.13 1.20065L974.824 0Z" fill="white"/>
<path d="M940.505 247.633C1032.45 252.035 1140.51 278.65 1207.45 345.786C1240.77 350.688 1270.38 349.788 1297 373.401C1327.01 397.313 1337.62 429.531 1344.52 465.95C1396.75 493.465 1441.77 529.184 1467.99 583.413C1507.41 661.655 1497.5 738.697 1512.71 819.94C1518.62 856.36 1543.33 874.07 1564.14 901.384C1569.54 928.599 1533.32 938.604 1514.11 945.908C1518.22 971.522 1519.12 994.534 1515.81 1020.25C1543.43 1079.98 1540.13 1145.32 1565.84 1205.35C1591.86 1268.38 1607.16 1333.12 1592.26 1401.15C1576.05 1484.2 1519.92 1570.44 1431.27 1586.25C1343.22 1598.86 1253.67 1570.54 1184.64 1515.51C1086.18 1586.75 960.316 1631.78 838.25 1607.16C745.2 1591.56 664.657 1547.53 589.617 1492.1C525.783 1504.51 464.65 1510.51 401.916 1489.1C348.687 1470.49 307.665 1427.17 285.453 1376.14C256.838 1308.8 251.135 1227.46 277.749 1158.62C296.259 1107.7 330.478 1065.67 347.387 1013.84C338.782 985.029 335.68 961.216 340.483 931.2C323.874 929.599 311.067 934.902 299.561 919.994C291.957 892.179 297.66 859.962 305.064 832.547C321.673 775.517 350.488 722.388 390.21 678.064C356.191 667.459 341.984 657.753 320.072 629.938C358.293 594.92 402.416 576.61 435.434 535.388C484.06 474.855 515.177 408.92 577.11 357.192C675.163 273.547 814.738 244.331 940.505 247.633Z" fill="#030203"/>
<path d="M814.538 275.248C913.291 259.639 1022.75 265.443 1115.4 305.564C1147.52 318.671 1171.03 342.684 1200.35 359.893C1230.56 371.099 1265.48 367.497 1289.79 391.01C1318.21 414.323 1318.71 444.839 1326.51 478.157C1373.94 502.87 1416.96 528.984 1443.98 577.11C1488 653.351 1478.59 727.891 1491.7 810.235C1497 851.658 1520.72 880.673 1547.23 910.789C1538.53 915.592 1529.72 920.495 1521.02 925.297C1507.01 919.094 1493.1 912.89 1479.09 906.687C1490.3 939.205 1498.11 970.822 1503.41 1004.84C1487.9 1000.94 1472.49 996.936 1457.08 992.933C1462.79 967.32 1473.89 945.008 1462.69 919.094C1453.38 890.578 1419.66 873.97 1400.55 851.357C1374.64 818.54 1350.03 785.322 1332.42 747.101C1321.51 722.288 1302.4 705.979 1283.79 687.269C1258.78 662.856 1248.07 631.239 1222.56 608.327C1202.85 591.018 1180.83 576.21 1158.32 562.702C1119.5 539.09 1070.18 530.585 1026.45 515.377C973.323 495.966 915.892 503.871 860.362 506.372C823.242 509.874 779.419 509.874 745.401 526.483C720.087 544.893 701.177 568.706 672.161 582.413C629.238 603.624 589.217 625.636 556.899 661.956C569.506 664.757 582.113 667.459 594.72 670.16C564.503 699.076 535.288 726.791 511.675 761.609C491.364 791.625 473.154 822.842 451.343 851.758C421.627 893.68 384.106 928.399 353.19 969.421C360.994 944.207 369.098 919.194 377.503 894.18C356.492 900.284 335.48 906.387 314.469 912.49C315.67 813.137 364.196 723.989 436.935 658.454C401.116 657.653 373.301 652.951 341.984 634.441C380.504 607.326 418.325 586.315 448.741 549.195C494.366 493.465 525.382 430.431 579.912 379.604C643.446 320.272 730.192 289.656 814.538 275.248Z" fill="#4F2B1F"/>
<path d="M1305.5 500.169C1289.39 514.176 1271.78 532.686 1251.27 539.69C1231.66 546.093 1209.85 547.294 1189.44 549.795C1232.16 538.389 1267.68 522.881 1305.5 500.169Z" fill="#030203"/>
<path d="M940.505 521.28C969.821 521.88 999.337 519.779 1026.05 533.286C1060.07 551.796 1098.69 549.595 1132.81 567.905C1166.43 585.314 1199.24 608.227 1226.46 634.641C1237.97 644.346 1236.06 655.952 1238.67 669.56C1259.88 689.27 1283.99 706.68 1303.3 728.191C1319.01 746.101 1324.11 774.216 1336.02 794.927C1351.83 813.337 1368.74 826.744 1375.34 851.457C1307.2 832.347 1241.87 829.746 1178.03 795.027C1088.08 746.801 1005.24 701.477 900.684 694.273C830.847 692.772 766.412 688.47 698.976 708.881C628.838 729.892 554.398 759.008 503.271 813.437C527.083 750.503 585.215 698.175 639.644 661.055C625.236 655.652 610.828 650.449 596.421 645.147C642.445 616.431 689.27 589.817 739.397 568.806C740.398 560.201 741.298 551.696 742.299 543.092C807.434 523.081 872.969 522.481 940.505 521.28Z" fill="#E5C3B9"/>
<path d="M887.777 553.998C931.1 560.701 969.621 577.11 1010.14 592.418C1064.57 600.222 1114.1 590.417 1165.13 618.132C1126.81 613.73 1089.39 606.026 1050.56 606.126C991.833 608.927 945.408 568.806 886.176 563.803L887.777 553.998Z" fill="#4F2B1F"/>
<path d="M850.857 581.412C889.278 585.014 938.404 597.621 948.81 640.744C942.406 640.844 936.003 640.844 929.6 640.744C855.76 628.638 783.521 628.137 708.981 629.938C740.598 590.617 803.432 580.012 850.857 581.412Z" fill="#030203"/>
<path d="M1346.22 625.536C1388.35 647.448 1418.06 682.867 1440.77 723.889C1415.26 698.575 1392.65 668.759 1364.53 646.347C1337.82 624.936 1299 619.833 1266.58 610.828C1292.39 613.23 1323.11 613.129 1346.22 625.536Z" fill="#030203"/>
<path d="M903.285 654.352C912.09 649.849 920.895 645.347 929.6 640.744C936.003 640.844 942.406 640.844 948.81 640.744C951.611 647.248 954.513 653.651 957.415 660.055C1007.54 671.161 1054.37 687.669 1092.49 723.489C1049.56 705.179 1012.64 681.466 966.419 671.061C922.196 661.255 875.871 653.251 830.446 655.052C788.023 656.853 751.404 672.061 707.98 679.165C766.112 646.547 838.751 637.643 903.285 654.352Z" fill="#4F2B1F"/>
<path d="M1278.99 637.743C1289.29 640.244 1299.6 642.745 1309.8 645.447C1362.73 676.664 1398.15 735.495 1420.36 791.225C1397.35 760.208 1379.14 725.99 1355.53 695.474C1334.62 668.859 1307 655.252 1278.99 637.743Z" fill="#030203"/>
<path d="M1160.92 647.948C1202.55 659.054 1229.26 685.969 1259.58 714.384C1257.08 718.086 1254.47 721.788 1251.87 725.39C1215.05 706.98 1177.13 693.973 1136.51 686.769C1113.7 682.567 1091.19 680.866 1068.17 678.365C1062.17 676.263 1056.17 673.962 1050.16 671.661L1051.16 662.356C1086.48 642.745 1121.6 637.342 1160.92 647.948Z" fill="#030203"/>
<path d="M1068.17 678.365C1091.19 680.866 1113.7 682.567 1136.51 686.769L1107.39 686.569C1158.12 715.184 1206.45 741.498 1244.17 787.223C1183.94 749.903 1136.71 703.278 1068.17 678.365Z" fill="#4F2B1F"/>
<path d="M900.684 694.273C1005.24 701.477 1088.08 746.801 1178.03 795.027C1241.87 829.746 1307.2 832.347 1375.34 851.458L1379.44 860.362C1333.12 850.257 1285.99 842.753 1240.17 830.446C1187.64 816.239 1145.12 787.323 1096.29 763.21C1034.96 732.394 966.819 707.28 897.782 703.578C848.756 700.777 798.429 699.976 749.703 707.08C656.953 723.089 571.607 764.611 498.968 823.943L503.27 813.437C554.398 759.008 628.838 729.892 698.976 708.881C766.412 688.47 830.846 692.772 900.684 694.273Z" fill="#4F2B1F"/>
<path d="M897.782 703.578C966.819 707.28 1034.96 732.394 1096.29 763.21C1145.12 787.323 1187.64 816.239 1240.17 830.446C1285.99 842.753 1333.12 850.257 1379.44 860.362C1406.56 884.175 1439.97 892.88 1449.08 931.901C1457.08 955.313 1444.88 969.721 1434.17 988.931C1429.17 972.423 1424.77 956.014 1420.86 939.205C1350.13 894.881 1278.89 924.297 1205.75 893.88C1127.31 863.264 1062.17 813.937 978.526 793.426C873.869 767.913 760.809 750.203 656.353 786.223C590.317 809.535 521.98 842.553 471.653 892.079C464.75 901.184 455.445 902.685 443.838 896.582C447.941 867.566 479.558 844.154 498.968 823.943C571.607 764.611 656.953 723.089 749.703 707.08C798.429 699.976 848.756 700.777 897.782 703.578Z" fill="#E5C3B9"/>
<path d="M484.861 762.01C462.549 802.431 432.332 833.448 395.713 861.063C422.927 825.744 453.244 793.326 484.861 762.01Z" fill="#030203"/>
<path d="M833.348 784.422C789.424 799.229 746.701 816.739 703.978 834.749C708.381 820.541 712.883 806.233 717.486 792.126L718.786 788.724C756.907 783.221 795.027 783.221 833.348 784.422Z" fill="#E5C3B9"/>
<path d="M698.776 789.824C671.861 886.176 620.133 975.324 558.8 1053.57C526.183 1061.57 493.065 1064.07 461.448 1076.58C493.265 1073.68 528.784 1061.27 560.001 1067.77C599.622 1074.38 637.443 1084.38 664.657 1116.1C685.869 1140.91 695.874 1168.03 686.669 1200.65C634.241 1177.33 576.71 1169.73 520.28 1180.93C507.173 1185.14 495.466 1193.84 483.76 1201.15C553.097 1192.04 617.332 1185.24 683.067 1215.65C711.883 1252.97 719.787 1301.4 678.165 1332.92C627.637 1306.6 576.41 1306.5 520.98 1310.9L521.981 1327.31C572.108 1322.81 617.032 1324.91 664.657 1342.12C672.762 1358.13 684.568 1372.64 681.766 1391.55C673.962 1423.26 647.548 1446.08 619.033 1459.78C565.004 1485.6 498.868 1488.8 440.437 1480.2C387.508 1471.89 342.984 1440.97 315.57 1395.25C282.252 1338.12 272.046 1267.08 284.253 1202.45C295.859 1145.02 326.075 1100.39 355.691 1051.47C396.413 1010.24 432.833 965.619 470.553 921.795C525.182 850.857 616.131 816.139 698.776 789.824Z" fill="#E5C3B9"/>
<path d="M890.478 792.426C928.399 796.028 965.919 808.034 1002.54 818.44C1079.48 840.952 1141.01 889.578 1216.65 916.392C1240.07 921.795 1235.86 951.211 1236.56 969.621C1159.82 1000.34 1084.28 1022.05 1000.54 1014.65C980.227 973.523 961.917 934.802 929.8 901.284C894.481 865.065 851.758 835.549 807.434 811.636C835.049 801.531 860.262 789.924 890.478 792.426Z" fill="#468302"/>
<path d="M807.434 811.636C851.758 835.549 894.481 865.065 929.8 901.284C961.917 934.802 980.227 973.523 1000.54 1014.65C1084.28 1022.05 1159.82 1000.34 1236.56 969.621L1235.36 986.53C1158.72 1021.75 1089.89 1034.76 1005.44 1033.06C997.736 1030.05 990.032 1027.05 982.228 1024.25C969.321 990.232 954.913 957.815 931.701 929.5C893.68 882.474 840.251 851.858 791.225 817.74L807.434 811.636Z" fill="#1D450C"/>
<path d="M791.225 817.74C840.252 851.858 893.68 882.474 931.701 929.5C954.913 957.815 969.321 990.232 982.228 1024.25C937.704 1011.44 893.58 1000.44 852.458 978.226C794.927 947.709 738.297 915.992 679.065 888.778C686.569 877.372 693.172 864.365 702.778 854.659C730.693 839.451 761.909 830.046 791.225 817.74Z" fill="#468302"/>
<path d="M470.553 921.795C432.833 965.619 396.413 1010.24 355.691 1051.46C368.098 1009.54 377.903 943.107 417.324 917.493C435.834 902.985 451.243 916.693 470.553 921.795Z" fill="#8F6559"/>
<path d="M672.962 905.086C688.77 911.89 704.478 918.694 720.187 925.497C690.371 958.915 687.169 971.522 692.572 1017.65C679.865 1006.04 667.058 994.635 654.151 983.328C657.053 955.714 660.455 930.2 672.962 905.086Z" fill="white"/>
<path d="M1248.47 924.897C1294.6 926.998 1346.92 924.797 1390.25 941.706C1407.56 962.817 1419.66 988.531 1434.37 1011.54C1464.59 1061.57 1494.4 1111.9 1527.52 1160.12C1542.53 1197.24 1560.04 1231.86 1569.84 1270.98C1589.75 1345.92 1577.75 1429.77 1534.32 1494.5C1506.21 1536.33 1462.19 1566.14 1411.06 1569.94C1357.53 1573.95 1301.6 1561.04 1253.17 1538.33C1216.65 1520.42 1174.03 1490.6 1163.02 1449.18C1155.52 1421.16 1171.83 1406.26 1184.64 1383.74C1236.96 1381.14 1285.49 1389.75 1336.62 1398.45C1285.99 1371.24 1230.96 1369.54 1175.43 1378.54C1162.72 1364.23 1150.62 1351.63 1151.32 1331.02C1149.42 1298 1168.13 1278.79 1187.74 1255.37C1224.56 1252.97 1264.78 1250.67 1301.1 1257.98C1327.91 1264.08 1354.03 1276.99 1379.94 1286.39C1328.81 1233.86 1248.97 1244.77 1182.44 1244.67C1180.23 1213.55 1188.64 1192.34 1211.15 1171.23C1245.17 1139.81 1287.79 1137.11 1331.92 1141.71C1363.13 1153.02 1393.75 1165.63 1425.97 1174.13C1399.15 1143.81 1365.23 1134.61 1327.21 1125.9C1298.2 1059.07 1266.18 996.636 1248.47 924.897Z" fill="#E5C3B9"/>
<path d="M749.603 954.013C764.911 971.422 795.127 979.827 765.611 1003.94C773.215 1007.34 780.92 1010.84 788.524 1014.35C782.22 1021.55 775.817 1028.65 769.413 1035.76C763.21 1023.65 757.007 1011.54 750.803 999.437L738.297 1011.04C735.895 986.83 737.696 975.124 749.603 954.013Z" fill="white"/>
<path d="M0 965.119C2.40129 990.432 5.60301 1015.55 8.60462 1040.76C28.9155 1222.36 105.957 1397.45 225.521 1535.63C339.582 1669.8 492.565 1768.65 660.855 1819.68C737.096 1843.59 814.938 1852.8 894.08 1861H0V965.119Z" fill="white"/>
<path d="M641.044 964.618C629.938 1000.54 616.231 1029.95 627.537 1068.07C612.429 1062.77 597.121 1057.77 581.812 1052.87C603.024 1024.45 621.534 994.334 641.044 964.618Z" fill="#E5C3B9"/>
<path d="M1861 975.024V1861H972.623C1036.26 1852.9 1098.19 1847.09 1160.32 1830.68C1344.32 1784.36 1512.41 1679.8 1635.68 1535.73C1732.33 1423.57 1800.87 1287.79 1834.79 1143.71C1847.79 1088.99 1853.6 1031.45 1861 975.024Z" fill="white"/>
<path d="M1235.36 986.53C1234.36 1001.34 1233.46 1016.05 1232.76 1030.85C1159.92 1054.87 1077.78 1063.27 1005.44 1033.06C1089.89 1034.76 1158.72 1021.75 1235.36 986.53Z" fill="#468302"/>
<path d="M856.66 998.837C892.68 1016.35 930.4 1028.25 968.821 1039.36C958.215 1049.26 950.711 1061.27 936.403 1065.27C891.179 1079.08 846.355 1076.78 800.03 1071.68C817.639 1058.77 834.348 1046.16 846.555 1027.75C850.057 1018.15 853.358 1008.54 856.66 998.837Z" fill="white"/>
<path d="M1251.97 992.733C1267.88 1036.96 1285.59 1080.18 1307.9 1121.5C1284.79 1123.3 1261.68 1125.8 1238.67 1128.71C1252.87 1081.48 1258.38 1042.36 1251.97 992.733Z" fill="#E5C3B9"/>
<path d="M645.247 1000.44C703.478 1046.36 766.312 1082.58 840.151 1096.19C873.369 1101.39 906.387 1092.79 938.904 1086.88C929.499 1099.49 919.994 1112 910.289 1124.5C891.379 1138.41 863.264 1140.71 840.552 1141.91C790.325 1144.01 740.398 1137.71 693.873 1118L688.17 1108.8C674.762 1094.39 657.653 1082.18 646.447 1065.97C636.842 1046.96 643.546 1020.85 645.247 1000.44Z" fill="#468302"/>
<path d="M1434.37 1011.54C1457.38 1012.04 1477.09 1008.14 1494.5 1026.75C1524.82 1058.57 1523.42 1119.2 1527.52 1160.12C1494.4 1111.9 1464.59 1061.57 1434.37 1011.54Z" fill="#8F6559"/>
<path d="M979.426 1041.56C1020.95 1060.07 1055.47 1067.77 1101.09 1069.98C1098.69 1097.29 1102.39 1116.3 1112 1141.61C1060.37 1123 1011.34 1104.99 971.022 1066.07C973.623 1057.77 976.425 1049.66 979.426 1041.56Z" fill="white"/>
<path d="M1232.76 1043.06C1246.77 1044.86 1247.27 1065.77 1233.06 1067.57C1219.16 1065.47 1218.55 1045.06 1232.76 1043.06Z" fill="white"/>
<path d="M961.817 1082.98C995.835 1106.29 1028.45 1129.71 1068.07 1142.91C1105.39 1155.42 1136.21 1170.83 1166.13 1196.64C1165.73 1215.05 1165.43 1233.46 1165.23 1251.97C1018.75 1184.24 867.366 1245.77 717.986 1182.84C703.078 1169.83 700.376 1137.21 693.873 1118C740.398 1137.71 790.325 1144.01 840.552 1141.91C863.264 1140.71 891.379 1138.41 910.289 1124.5C927.999 1111.2 944.507 1096.69 961.817 1082.98Z" fill="#468302"/>
<path d="M1161.82 1075.78C1167.23 1087.28 1172.43 1098.79 1177.43 1110.5C1181.63 1103.49 1185.84 1096.59 1190.04 1089.69C1196.04 1095.29 1202.05 1100.99 1207.95 1106.59C1196.44 1118 1190.54 1117.7 1174.33 1118.4C1168.93 1125.91 1163.63 1133.41 1158.22 1140.91C1148.82 1132.01 1139.51 1123 1130.81 1113.4C1140.71 1100.49 1151.12 1088.08 1161.82 1075.78Z" fill="white"/>
<path d="M1210.75 1133.61C1228.36 1123.6 1235.86 1145.22 1216.65 1149.32C1206.35 1147.12 1204.45 1141.91 1210.75 1133.61Z" fill="white"/>
<path d="M1327.21 1125.9C1365.23 1134.61 1399.15 1143.81 1425.97 1174.13C1393.75 1165.63 1363.13 1153.02 1331.92 1141.71L1327.21 1125.9Z" fill="#8F6559"/>
<path d="M1163.83 1171.33L1170.83 1167.13L1178.03 1171.23V1179.63L1170.93 1183.84L1163.83 1179.73V1171.33Z" fill="#468302"/>
<path d="M520.279 1180.93C576.71 1169.73 634.241 1177.33 686.669 1200.65L683.067 1215.65C617.332 1185.24 553.097 1192.04 483.76 1201.15C495.466 1193.84 507.172 1185.14 520.279 1180.93Z" fill="#8F6559"/>
<path d="M698.575 1199.94C753.005 1210.65 804.032 1229.16 860.262 1230.66C960.816 1235.76 1055.17 1225.96 1151.82 1262.48C1149.02 1271.38 1146.32 1280.29 1143.51 1289.09C1020.45 1240.77 905.487 1271.48 780.419 1250.67C745.601 1241.97 708.381 1241.77 698.575 1199.94Z" fill="#934A0F"/>
<path d="M1379.94 1286.39C1354.03 1276.99 1327.91 1264.08 1301.1 1257.98C1264.78 1250.67 1224.56 1252.97 1187.74 1255.37C1185.94 1251.87 1184.24 1248.27 1182.44 1244.67C1248.97 1244.77 1328.81 1233.86 1379.94 1286.39Z" fill="#4F2B1F"/>
<path d="M718.486 1255.37C762.71 1263.28 805.233 1275.29 850.457 1276.39C933.802 1282.49 1034.56 1268.38 1113.1 1298.2C1133.31 1304.8 1133.11 1314.31 1138.81 1333.32C1102.09 1323.11 1068.67 1310.6 1030.45 1307.7C939.105 1300.8 830.947 1313.21 742.099 1287.29C723.589 1284.09 724.99 1269.88 718.486 1255.37Z" fill="#934A0F"/>
<path d="M725.59 1303.5C750.803 1305.4 775.617 1312.81 800.73 1316.31C880.473 1328.91 960.016 1317.71 1038.76 1325.91C1076.58 1329.91 1110.7 1343.52 1145.22 1358.73C1129.11 1381.84 1115.6 1416.46 1092.49 1432.37C1035.56 1451.28 969.421 1449.48 910.289 1443.18C845.154 1438.07 792.526 1400.15 727.491 1393.25L739.297 1383.64L751.204 1374.44C730.493 1366.63 709.781 1358.93 689.07 1351.13C700.576 1335.02 711.983 1317.91 725.59 1303.5Z" fill="#468302"/>
<path d="M520.98 1310.9C576.41 1306.5 627.637 1306.6 678.164 1332.92L664.657 1342.12C617.032 1324.91 572.107 1322.81 521.981 1327.31L520.98 1310.9Z" fill="#8F6559"/>
<path d="M1336.62 1398.45C1285.49 1389.75 1236.96 1381.14 1184.64 1383.74L1175.43 1378.54C1230.96 1369.54 1285.99 1371.24 1336.62 1398.45Z" fill="#4F2B1F"/>
<path d="M697.975 1370.24C714.084 1368.34 726.19 1375.74 739.297 1383.64L727.491 1393.25C712.083 1392.15 698.475 1388.05 697.975 1370.24Z" fill="#468302"/>
<path d="M1160.32 1376.34C1151.42 1401.45 1142.81 1425.17 1141.71 1452.18C1076.48 1466.29 1015.65 1494.5 950.411 1494C852.858 1491.3 771.214 1449.98 676.463 1440.27C684.067 1428.47 691.672 1416.66 699.276 1404.85C767.712 1414.16 827.244 1446.08 893.68 1460.48C896.582 1467.09 899.483 1473.59 902.385 1480.1C902.685 1474.09 902.885 1468.09 903.185 1462.09C979.826 1466.59 1050.26 1473.69 1121.5 1438.67C1129.11 1411.46 1136.61 1393.05 1160.32 1376.34Z" fill="#E5C3B9"/>
<path d="M690.771 1460.38C805.233 1478.39 901.885 1531.52 1022.45 1504.31C1063.97 1497.6 1111.2 1467.49 1152.52 1474.99L1154.12 1478.99C1142.21 1499.71 1118.9 1508.81 1098.39 1518.72C1011.54 1560.24 902.585 1558.74 809.735 1542.13C752.004 1532.92 704.779 1504.81 653.251 1479.6C667.459 1500.51 683.167 1515.61 703.978 1529.72L683.167 1530.02C656.753 1516.82 632.84 1500.31 608.727 1483.3C636.642 1469.79 657.553 1452.48 690.771 1460.38Z" fill="#E5C3B9"/>
<path d="M1152.52 1474.99C1160.22 1482.9 1167.73 1491.2 1175.03 1499.51L1169.73 1503.11C1126.31 1521.92 1090.59 1544.63 1045.86 1557.54C935.002 1591.05 809.435 1573.95 703.978 1529.72C683.167 1515.61 667.459 1500.51 653.251 1479.6C704.779 1504.81 752.004 1532.92 809.735 1542.13C902.585 1558.74 1011.54 1560.24 1098.39 1518.72C1118.9 1508.81 1142.21 1499.71 1154.12 1478.99L1152.52 1474.99Z" fill="#8F6559"/>
<path d="M1169.73 1503.11C1096.09 1554.94 1011.04 1589.35 920.495 1593.96C835.949 1594.56 756.106 1572.55 683.167 1530.02L703.978 1529.72C809.435 1573.95 935.002 1591.05 1045.86 1557.54C1090.59 1544.63 1126.31 1521.92 1169.73 1503.11Z" fill="white"/>
</g>
<defs>
<clipPath id="clip0_161_2">
<rect width="1861" height="1861" rx="930.5" fill="white"/>
</clipPath>
</defs>
</svg>
