<svg width="312" height="25" viewBox="0 0 312 25" fill="none" xmlns="http://www.w3.org/2000/svg">
<line y1="12.75" x2="143" y2="12.75" stroke="#D1D1D1" stroke-opacity="0.9" stroke-width="0.5"/>
<line x1="169" y1="12.75" x2="312" y2="12.75" stroke="#D1D1D1" stroke-opacity="0.9" stroke-width="0.5"/>
<path d="M168.75 12.5C168.75 19.2563 163.051 24.75 156 24.75C148.949 24.75 143.25 19.2563 143.25 12.5C143.25 5.74366 148.949 0.25 156 0.25C163.051 0.25 168.75 5.74366 168.75 12.5Z" stroke="#D1D1D1" stroke-opacity="0.9" stroke-width="0.5"/>
<path d="M155.47 17.5303C155.763 17.8232 156.237 17.8232 156.53 17.5303L161.303 12.7574C161.596 12.4645 161.596 11.9896 161.303 11.6967C161.01 11.4038 160.536 11.4038 160.243 11.6967L156 15.9393L151.757 11.6967C151.464 11.4038 150.99 11.4038 150.697 11.6967C150.404 11.9896 150.404 12.4645 150.697 12.7574L155.47 17.5303ZM155.25 8L155.25 17L156.75 17L156.75 8L155.25 8Z" fill="#D1D1D1" fill-opacity="0.9"/>
</svg>
