<svg width="23" height="21" viewBox="0 0 23 21" fill="none" xmlns="http://www.w3.org/2000/svg">
<path d="M22.6289 16.558L18.874 20.7084C18.7924 20.7992 18.6937 20.8719 18.5839 20.922C18.4741 20.9722 18.3556 20.9987 18.2355 21H0.436077C0.351242 20.9995 0.268395 20.9735 0.197604 20.9252C0.126813 20.8769 0.0711262 20.8085 0.0373106 20.7281C0.00349585 20.6478 -0.00699227 20.5591 0.00712186 20.4727C0.021236 20.3864 0.0593438 20.3061 0.116816 20.2417L3.87166 16.0855C3.95334 15.9946 4.05207 15.9219 4.16186 15.8718C4.27163 15.8217 4.39015 15.7951 4.51017 15.7937H22.3097C22.3956 15.7933 22.4798 15.8189 22.5517 15.8674C22.6236 15.916 22.6802 15.9854 22.7142 16.0668C22.7482 16.1483 22.7583 16.2382 22.7431 16.3257C22.728 16.413 22.6882 16.4937 22.6289 16.558ZM18.874 8.18709C18.7927 8.09592 18.694 8.02291 18.5842 7.97274C18.4743 7.92255 18.3556 7.89624 18.2355 7.89543H0.436077C0.351241 7.89523 0.2682 7.92064 0.197173 7.96853C0.126144 8.01642 0.0702278 8.08472 0.0363037 8.16496C0.00237874 8.24528 -0.00807467 8.33401 0.00623018 8.42037C0.0205342 8.50664 0.0589726 8.58679 0.116816 8.65084L3.87166 12.813C3.95302 12.9041 4.0517 12.9771 4.16154 13.0272C4.27139 13.0775 4.39006 13.1038 4.51017 13.1046H22.3097C22.3945 13.1048 22.4775 13.0794 22.5485 13.0315C22.6195 12.9836 22.6755 12.9153 22.7094 12.835C22.7434 12.7548 22.7538 12.6661 22.7395 12.5797C22.7252 12.4934 22.6868 12.4133 22.6289 12.3492L18.874 8.18709ZM0.436077 5.20043H18.2355C18.3556 5.1991 18.4741 5.17255 18.5839 5.1224C18.6937 5.07226 18.7924 4.99957 18.874 4.90875L22.6289 0.758333C22.6864 0.693915 22.7245 0.613643 22.7386 0.527289C22.7527 0.440926 22.7422 0.352192 22.7084 0.271876C22.6746 0.191551 22.619 0.123101 22.5481 0.0748371C22.4773 0.0265721 22.3945 0.000573126 22.3097 0H4.51017C4.39015 0.00133175 4.27163 0.0278784 4.16186 0.0780221C4.05207 0.128166 3.95334 0.200861 3.87166 0.291669L0.116816 4.44209C0.0593438 4.50651 0.021236 4.58678 0.00712186 4.67313C-0.00699227 4.75949 0.00349585 4.84823 0.0373106 4.92854C0.0711262 5.00887 0.126813 5.07732 0.197604 5.12559C0.268395 5.17385 0.351242 5.19985 0.436077 5.20043Z" fill="url(#paint0_linear_165_301)"/>
<defs>
<linearGradient id="paint0_linear_165_301" x1="1.91937" y1="21.5017" x2="21.2534" y2="0.389322" gradientUnits="userSpaceOnUse">
<stop offset="0.08" stop-color="#9945FF"/>
<stop offset="0.3" stop-color="#8752F3"/>
<stop offset="0.5" stop-color="#5497D5"/>
<stop offset="0.6" stop-color="#43B4CA"/>
<stop offset="0.72" stop-color="#28E0B9"/>
<stop offset="0.97" stop-color="#19FB9B"/>
</linearGradient>
</defs>
</svg>
