<svg width="1366" height="352" viewBox="0 0 1366 352" fill="none" xmlns="http://www.w3.org/2000/svg">
<path d="M84.082 279H38.0859L38.3789 247.359H84.082C96.4844 247.359 106.885 244.625 115.283 239.156C123.682 233.59 130.029 225.631 134.326 215.279C138.623 204.83 140.771 192.33 140.771 177.779V166.793C140.771 155.562 139.551 145.65 137.109 137.057C134.668 128.463 131.055 121.236 126.27 115.377C121.582 109.518 115.771 105.074 108.838 102.047C101.904 99.0195 93.9453 97.5059 84.9609 97.5059H37.207V65.7188H84.9609C99.2188 65.7188 112.207 68.1113 123.926 72.8965C135.742 77.6816 145.947 84.5664 154.541 93.5508C163.232 102.438 169.873 113.082 174.463 125.484C179.15 137.887 181.494 151.754 181.494 167.086V177.779C181.494 193.014 179.15 206.881 174.463 219.381C169.873 231.783 163.232 242.428 154.541 251.314C145.947 260.201 135.693 267.037 123.779 271.822C111.865 276.607 98.6328 279 84.082 279ZM60.6445 65.7188V279H20.3613V65.7188H60.6445ZM205.957 201.363V198.287C205.957 186.666 207.617 175.973 210.938 166.207C214.258 156.344 219.092 147.799 225.439 140.572C231.787 133.346 239.551 127.73 248.73 123.727C257.91 119.625 268.359 117.574 280.078 117.574C291.992 117.574 302.539 119.625 311.719 123.727C320.996 127.73 328.809 133.346 335.156 140.572C341.504 147.799 346.338 156.344 349.658 166.207C352.979 175.973 354.639 186.666 354.639 198.287V201.363C354.639 212.887 352.979 223.58 349.658 233.443C346.338 243.209 341.504 251.754 335.156 259.078C328.809 266.305 321.045 271.92 311.865 275.924C302.686 279.928 292.188 281.93 280.371 281.93C268.652 281.93 258.154 279.928 248.877 275.924C239.6 271.92 231.787 266.305 225.439 259.078C219.092 251.754 214.258 243.209 210.938 233.443C207.617 223.58 205.957 212.887 205.957 201.363ZM244.629 198.287V201.363C244.629 208.297 245.312 214.791 246.68 220.846C248.047 226.9 250.146 232.223 252.979 236.812C255.811 241.402 259.473 245.016 263.965 247.652C268.555 250.191 274.023 251.461 280.371 251.461C286.621 251.461 291.992 250.191 296.484 247.652C300.977 245.016 304.639 241.402 307.471 236.812C310.4 232.223 312.549 226.9 313.916 220.846C315.283 214.791 315.967 208.297 315.967 201.363V198.287C315.967 191.451 315.283 185.055 313.916 179.098C312.549 173.043 310.4 167.721 307.471 163.131C304.639 158.443 300.928 154.781 296.338 152.145C291.846 149.41 286.426 148.043 280.078 148.043C273.828 148.043 268.457 149.41 263.965 152.145C259.473 154.781 255.811 158.443 252.979 163.131C250.146 167.721 248.047 173.043 246.68 179.098C245.312 185.055 244.629 191.451 244.629 198.287ZM483.545 120.504H518.701V274.166C518.701 288.521 515.576 300.68 509.326 310.641C503.174 320.699 494.531 328.316 483.398 333.492C472.266 338.766 459.326 341.402 444.58 341.402C438.232 341.402 431.348 340.523 423.926 338.766C416.602 337.008 409.521 334.225 402.686 330.416C395.947 326.705 390.332 321.871 385.84 315.914L403.271 293.062C408.545 299.215 414.502 303.854 421.143 306.979C427.783 310.201 434.961 311.812 442.676 311.812C450.488 311.812 457.129 310.348 462.598 307.418C468.164 304.586 472.412 300.387 475.342 294.82C478.369 289.352 479.883 282.613 479.883 274.605V156.686L483.545 120.504ZM376.465 201.656V198.58C376.465 186.471 377.93 175.484 380.859 165.621C383.789 155.66 387.988 147.115 393.457 139.986C399.023 132.857 405.713 127.34 413.525 123.434C421.436 119.527 430.322 117.574 440.186 117.574C450.635 117.574 459.424 119.479 466.553 123.287C473.779 127.096 479.736 132.516 484.424 139.547C489.209 146.578 492.92 154.928 495.557 164.596C498.291 174.166 500.391 184.713 501.855 196.236V204.586C500.488 215.816 498.291 226.119 495.264 235.494C492.334 244.869 488.428 253.072 483.545 260.104C478.662 267.037 472.607 272.408 465.381 276.217C458.154 280.025 449.658 281.93 439.893 281.93C430.127 281.93 421.338 279.928 413.525 275.924C405.713 271.92 399.023 266.305 393.457 259.078C387.988 251.852 383.789 243.355 380.859 233.59C377.93 223.824 376.465 213.18 376.465 201.656ZM415.137 198.58V201.656C415.137 208.492 415.82 214.889 417.188 220.846C418.555 226.803 420.654 232.076 423.486 236.666C426.318 241.158 429.883 244.674 434.18 247.213C438.477 249.752 443.604 251.021 449.561 251.021C457.568 251.021 464.111 249.361 469.189 246.041C474.365 242.623 478.271 237.984 480.908 232.125C483.643 226.168 485.4 219.479 486.182 212.057V189.059C485.693 183.199 484.619 177.779 482.959 172.799C481.396 167.818 479.199 163.521 476.367 159.908C473.535 156.295 469.922 153.463 465.527 151.412C461.133 149.361 455.908 148.336 449.854 148.336C443.994 148.336 438.867 149.654 434.473 152.291C430.078 154.83 426.465 158.395 423.633 162.984C420.801 167.574 418.652 172.896 417.188 178.951C415.82 185.006 415.137 191.549 415.137 198.58ZM691.846 247.359V279H584.619V247.359H691.846ZM596.777 65.7188V279H556.494V65.7188H596.777ZM756.885 120.504V279H718.066V120.504H756.885ZM715.43 79.0488C715.43 73.2871 717.383 68.502 721.289 64.6934C725.293 60.8848 730.664 58.9805 737.402 58.9805C744.141 58.9805 749.463 60.8848 753.369 64.6934C757.373 68.502 759.375 73.2871 759.375 79.0488C759.375 84.7129 757.373 89.4492 753.369 93.2578C749.463 97.0664 744.141 98.9707 737.402 98.9707C730.664 98.9707 725.293 97.0664 721.289 93.2578C717.383 89.4492 715.43 84.7129 715.43 79.0488ZM844.482 279H805.518V105.855C805.518 93.9414 807.812 83.9316 812.402 75.8262C816.992 67.623 823.535 61.4219 832.031 57.2227C840.527 53.0234 850.537 50.9238 862.061 50.9238C865.869 50.9238 869.482 51.168 872.9 51.6562C876.416 52.1445 879.883 52.8281 883.301 53.707L882.568 83.1504C880.713 82.6621 878.662 82.3203 876.416 82.125C874.268 81.9297 871.875 81.832 869.238 81.832C863.965 81.832 859.473 82.7598 855.762 84.6152C852.051 86.4707 849.219 89.2051 847.266 92.8184C845.41 96.334 844.482 100.68 844.482 105.855V279ZM876.562 120.504V148.336H781.641V120.504H876.562ZM968.115 281.93C956.104 281.93 945.312 279.977 935.742 276.07C926.172 272.164 918.018 266.744 911.279 259.811C904.639 252.779 899.512 244.625 895.898 235.348C892.383 225.973 890.625 215.914 890.625 205.172V199.312C890.625 187.105 892.383 176.021 895.898 166.061C899.414 156.002 904.395 147.359 910.84 140.133C917.285 132.906 925 127.34 933.984 123.434C942.969 119.527 952.881 117.574 963.721 117.574C974.951 117.574 984.863 119.479 993.457 123.287C1002.05 126.998 1009.23 132.271 1014.99 139.107C1020.75 145.943 1025.1 154.146 1028.03 163.717C1030.96 173.189 1032.42 183.688 1032.42 195.211V211.471H908.203V184.811H994.336V181.881C994.141 175.729 992.969 170.113 990.82 165.035C988.672 159.859 985.352 155.758 980.859 152.73C976.367 149.605 970.557 148.043 963.428 148.043C957.666 148.043 952.637 149.312 948.34 151.852C944.141 154.293 940.625 157.809 937.793 162.398C935.059 166.891 933.008 172.262 931.641 178.512C930.273 184.762 929.59 191.695 929.59 199.312V205.172C929.59 211.812 930.469 217.965 932.227 223.629C934.082 229.293 936.768 234.225 940.283 238.424C943.896 242.525 948.193 245.748 953.174 248.092C958.252 250.338 964.014 251.461 970.459 251.461C978.564 251.461 985.889 249.898 992.432 246.773C999.072 243.551 1004.83 238.814 1009.72 232.564L1029.2 252.779C1025.88 257.662 1021.39 262.35 1015.72 266.842C1010.16 271.334 1003.42 274.996 995.508 277.828C987.598 280.562 978.467 281.93 968.115 281.93ZM1059.96 260.104C1059.96 254.244 1061.96 249.312 1065.97 245.309C1069.97 241.305 1075.39 239.303 1082.23 239.303C1089.06 239.303 1094.48 241.305 1098.49 245.309C1102.49 249.312 1104.49 254.244 1104.49 260.104C1104.49 265.865 1102.49 270.748 1098.49 274.752C1094.48 278.658 1089.06 280.611 1082.23 280.611C1075.39 280.611 1069.97 278.658 1065.97 274.752C1061.96 270.748 1059.96 265.865 1059.96 260.104ZM1230.91 245.309V172.213C1230.91 166.842 1229.98 162.203 1228.12 158.297C1226.27 154.391 1223.44 151.363 1219.63 149.215C1215.82 147.066 1210.99 145.992 1205.13 145.992C1199.95 145.992 1195.41 146.871 1191.5 148.629C1187.7 150.387 1184.77 152.877 1182.71 156.1C1180.66 159.225 1179.64 162.838 1179.64 166.939H1140.82C1140.82 160.396 1142.38 154.195 1145.51 148.336C1148.63 142.379 1153.08 137.105 1158.84 132.516C1164.7 127.828 1171.68 124.166 1179.79 121.529C1187.99 118.893 1197.17 117.574 1207.32 117.574C1219.34 117.574 1230.03 119.625 1239.4 123.727C1248.88 127.73 1256.3 133.785 1261.67 141.891C1267.14 149.996 1269.87 160.201 1269.87 172.506V241.646C1269.87 249.557 1270.36 256.344 1271.34 262.008C1272.41 267.574 1273.97 272.408 1276.03 276.51V279H1236.62C1234.77 274.996 1233.35 269.918 1232.37 263.766C1231.4 257.516 1230.91 251.363 1230.91 245.309ZM1236.33 182.467L1236.62 205.465H1212.16C1206.1 205.465 1200.78 206.1 1196.19 207.369C1191.6 208.541 1187.84 210.299 1184.91 212.643C1181.98 214.889 1179.79 217.623 1178.32 220.846C1176.86 223.971 1176.12 227.535 1176.12 231.539C1176.12 235.445 1177 238.961 1178.76 242.086C1180.62 245.211 1183.25 247.701 1186.67 249.557C1190.19 251.314 1194.29 252.193 1198.97 252.193C1205.81 252.193 1211.77 250.826 1216.85 248.092C1221.92 245.26 1225.88 241.842 1228.71 237.838C1231.54 233.834 1233.06 230.025 1233.25 226.412L1244.38 243.111C1243.02 247.115 1240.97 251.363 1238.23 255.855C1235.5 260.348 1231.98 264.547 1227.69 268.453C1223.39 272.359 1218.21 275.582 1212.16 278.121C1206.1 280.66 1199.07 281.93 1191.06 281.93C1180.81 281.93 1171.63 279.879 1163.53 275.777C1155.42 271.676 1149.02 266.061 1144.34 258.932C1139.65 251.803 1137.3 243.697 1137.3 234.615C1137.3 226.217 1138.87 218.795 1141.99 212.35C1145.12 205.904 1149.76 200.484 1155.91 196.09C1162.06 191.598 1169.68 188.229 1178.76 185.982C1187.94 183.639 1198.44 182.467 1210.25 182.467H1236.33ZM1345.75 120.504V279H1306.93V120.504H1345.75ZM1304.3 79.0488C1304.3 73.2871 1306.25 68.502 1310.16 64.6934C1314.16 60.8848 1319.53 58.9805 1326.27 58.9805C1333.01 58.9805 1338.33 60.8848 1342.24 64.6934C1346.24 68.502 1348.24 73.2871 1348.24 79.0488C1348.24 84.7129 1346.24 89.4492 1342.24 93.2578C1338.33 97.0664 1333.01 98.9707 1326.27 98.9707C1319.53 98.9707 1314.16 97.0664 1310.16 93.2578C1306.25 89.4492 1304.3 84.7129 1304.3 79.0488Z" fill="#D1D1D1"/>
</svg>
